<mxfile host="app.diagrams.net" modified="2024-04-19T17:06:20.809Z" agent="Mozilla/5.0 (Windows NT 10.0; Win64; x64) AppleWebKit/537.36 (KHTML, like Gecko) Chrome/124.0.0.0 Safari/537.36" etag="jKnjXixIeVN8ZpM2QmMF" version="24.2.5" type="github">
  <diagram name="PÃ¡gina-1" id="552JDMU5p11zToW7AhLL">
    <mxGraphModel dx="1493" dy="613" grid="1" gridSize="10" guides="1" tooltips="1" connect="1" arrows="1" fold="1" page="1" pageScale="1" pageWidth="827" pageHeight="1169" math="0" shadow="0">
      <root>
        <mxCell id="0" />
        <mxCell id="1" parent="0" />
        <mxCell id="6IA_MfzywkJ-VAfN1QZK-5" value="DATABASE" style="swimlane;whiteSpace=wrap" vertex="1" parent="1">
          <mxGeometry x="1150" y="128" width="350" height="712" as="geometry" />
        </mxCell>
        <mxCell id="6IA_MfzywkJ-VAfN1QZK-6" value="CHECK IF THERE IS ANY USER WITH THAT EMAIL" style="rounded=1;whiteSpace=wrap;html=1;" vertex="1" parent="6IA_MfzywkJ-VAfN1QZK-5">
          <mxGeometry x="95" y="34" width="160" height="78" as="geometry" />
        </mxCell>
        <mxCell id="6IA_MfzywkJ-VAfN1QZK-69" value="SEARCH THE RESULTS ACCORDING TO THE PAST EMIAL AND ALREADY SAVE ALL THE VALUES OF THAT SPECIFIC QUERY INTO A VARIABLE" style="shape=note;whiteSpace=wrap;html=1;backgroundOutline=1;darkOpacity=0.05;" vertex="1" parent="6IA_MfzywkJ-VAfN1QZK-5">
          <mxGeometry x="95" y="122" width="185" height="100" as="geometry" />
        </mxCell>
        <mxCell id="6IA_MfzywkJ-VAfN1QZK-73" value="CHECKS IF THE PASSWORD IS THE SAME ACCORDING TO THE USER HASH FOUND" style="rounded=1;whiteSpace=wrap;html=1;" vertex="1" parent="6IA_MfzywkJ-VAfN1QZK-5">
          <mxGeometry x="60" y="307" width="230" height="100" as="geometry" />
        </mxCell>
        <mxCell id="6IA_MfzywkJ-VAfN1QZK-82" value="WE USE PHP HASH FUNCTIONS" style="shape=note;whiteSpace=wrap;html=1;backgroundOutline=1;darkOpacity=0.05;" vertex="1" parent="6IA_MfzywkJ-VAfN1QZK-5">
          <mxGeometry x="60" y="412" width="230" height="78" as="geometry" />
        </mxCell>
        <mxCell id="6IA_MfzywkJ-VAfN1QZK-17" value="USER" style="swimlane;whiteSpace=wrap" vertex="1" parent="1">
          <mxGeometry x="170" y="128" width="280" height="712" as="geometry" />
        </mxCell>
        <mxCell id="6IA_MfzywkJ-VAfN1QZK-18" value="" style="ellipse;html=1;shape=startState;fillColor=#000000;strokeColor=#ff0000;" vertex="1" parent="6IA_MfzywkJ-VAfN1QZK-17">
          <mxGeometry x="125" y="42" width="30" height="30" as="geometry" />
        </mxCell>
        <mxCell id="6IA_MfzywkJ-VAfN1QZK-19" value="" style="edgeStyle=orthogonalEdgeStyle;html=1;verticalAlign=bottom;endArrow=open;endSize=8;strokeColor=#ff0000;rounded=0;" edge="1" parent="6IA_MfzywkJ-VAfN1QZK-17" source="6IA_MfzywkJ-VAfN1QZK-18">
          <mxGeometry relative="1" as="geometry">
            <mxPoint x="140" y="122" as="targetPoint" />
          </mxGeometry>
        </mxCell>
        <mxCell id="6IA_MfzywkJ-VAfN1QZK-20" style="edgeStyle=orthogonalEdgeStyle;rounded=0;orthogonalLoop=1;jettySize=auto;html=1;" edge="1" parent="6IA_MfzywkJ-VAfN1QZK-17" source="6IA_MfzywkJ-VAfN1QZK-21" target="6IA_MfzywkJ-VAfN1QZK-22">
          <mxGeometry relative="1" as="geometry" />
        </mxCell>
        <mxCell id="6IA_MfzywkJ-VAfN1QZK-21" value="USER LOGIN" style="rounded=1;whiteSpace=wrap;html=1;" vertex="1" parent="6IA_MfzywkJ-VAfN1QZK-17">
          <mxGeometry x="75" y="122" width="130" height="38" as="geometry" />
        </mxCell>
        <mxCell id="6IA_MfzywkJ-VAfN1QZK-22" value="USER WRITE:&lt;div&gt;-EMAIL&lt;/div&gt;&lt;div&gt;-PASSWORD&lt;/div&gt;" style="rounded=1;whiteSpace=wrap;html=1;" vertex="1" parent="6IA_MfzywkJ-VAfN1QZK-17">
          <mxGeometry x="65" y="212" width="150" height="60" as="geometry" />
        </mxCell>
        <mxCell id="6IA_MfzywkJ-VAfN1QZK-23" style="edgeStyle=orthogonalEdgeStyle;rounded=0;orthogonalLoop=1;jettySize=auto;html=1;entryX=0;entryY=0.5;entryDx=0;entryDy=0;" edge="1" parent="1" source="6IA_MfzywkJ-VAfN1QZK-22" target="6IA_MfzywkJ-VAfN1QZK-62">
          <mxGeometry relative="1" as="geometry">
            <Array as="points">
              <mxPoint x="480" y="370" />
              <mxPoint x="480" y="200" />
              <mxPoint x="510" y="200" />
            </Array>
            <mxPoint x="510" y="250" as="targetPoint" />
          </mxGeometry>
        </mxCell>
        <mxCell id="6IA_MfzywkJ-VAfN1QZK-25" value="SYSTEM" style="swimlane;whiteSpace=wrap" vertex="1" parent="1">
          <mxGeometry x="450" y="128" width="700" height="712" as="geometry" />
        </mxCell>
        <mxCell id="6IA_MfzywkJ-VAfN1QZK-36" value="SEND TO REGISTER PAGE" style="rounded=1;whiteSpace=wrap;html=1;" vertex="1" parent="6IA_MfzywkJ-VAfN1QZK-25">
          <mxGeometry x="175" y="112" width="120" height="60" as="geometry" />
        </mxCell>
        <mxCell id="6IA_MfzywkJ-VAfN1QZK-72" style="edgeStyle=orthogonalEdgeStyle;rounded=0;orthogonalLoop=1;jettySize=auto;html=1;" edge="1" parent="6IA_MfzywkJ-VAfN1QZK-25" source="6IA_MfzywkJ-VAfN1QZK-38" target="6IA_MfzywkJ-VAfN1QZK-71">
          <mxGeometry relative="1" as="geometry" />
        </mxCell>
        <mxCell id="6IA_MfzywkJ-VAfN1QZK-38" value="SANATIZE PASSWORD" style="rounded=1;whiteSpace=wrap;html=1;" vertex="1" parent="6IA_MfzywkJ-VAfN1QZK-25">
          <mxGeometry x="175" y="217" width="120" height="60" as="geometry" />
        </mxCell>
        <mxCell id="6IA_MfzywkJ-VAfN1QZK-39" value="IS IN USE" style="text;html=1;align=center;verticalAlign=middle;resizable=0;points=[];autosize=1;strokeColor=none;fillColor=none;" vertex="1" parent="6IA_MfzywkJ-VAfN1QZK-25">
          <mxGeometry x="355" y="217" width="80" height="30" as="geometry" />
        </mxCell>
        <mxCell id="6IA_MfzywkJ-VAfN1QZK-40" value="" style="ellipse;html=1;shape=endState;fillColor=#000000;strokeColor=#ff0000;" vertex="1" parent="6IA_MfzywkJ-VAfN1QZK-25">
          <mxGeometry x="100" y="127" width="30" height="30" as="geometry" />
        </mxCell>
        <mxCell id="6IA_MfzywkJ-VAfN1QZK-41" style="edgeStyle=orthogonalEdgeStyle;rounded=0;orthogonalLoop=1;jettySize=auto;html=1;" edge="1" parent="6IA_MfzywkJ-VAfN1QZK-25" source="6IA_MfzywkJ-VAfN1QZK-36">
          <mxGeometry relative="1" as="geometry">
            <mxPoint x="130" y="142" as="targetPoint" />
          </mxGeometry>
        </mxCell>
        <mxCell id="6IA_MfzywkJ-VAfN1QZK-42" value="NOT IN USE" style="text;html=1;align=center;verticalAlign=middle;resizable=0;points=[];autosize=1;strokeColor=none;fillColor=none;" vertex="1" parent="6IA_MfzywkJ-VAfN1QZK-25">
          <mxGeometry x="350" y="112" width="90" height="30" as="geometry" />
        </mxCell>
        <mxCell id="6IA_MfzywkJ-VAfN1QZK-52" style="edgeStyle=orthogonalEdgeStyle;rounded=0;orthogonalLoop=1;jettySize=auto;html=1;entryX=1;entryY=0.5;entryDx=0;entryDy=0;" edge="1" parent="6IA_MfzywkJ-VAfN1QZK-25" source="6IA_MfzywkJ-VAfN1QZK-53" target="6IA_MfzywkJ-VAfN1QZK-54">
          <mxGeometry relative="1" as="geometry" />
        </mxCell>
        <mxCell id="6IA_MfzywkJ-VAfN1QZK-53" value="CREATE A SESSION AND SEND TO HOME PAGE" style="rounded=1;whiteSpace=wrap;html=1;" vertex="1" parent="6IA_MfzywkJ-VAfN1QZK-25">
          <mxGeometry x="175" y="582" width="160" height="60" as="geometry" />
        </mxCell>
        <mxCell id="6IA_MfzywkJ-VAfN1QZK-54" value="" style="ellipse;html=1;shape=endState;fillColor=#000000;strokeColor=#ff0000;" vertex="1" parent="6IA_MfzywkJ-VAfN1QZK-25">
          <mxGeometry x="100" y="597" width="30" height="30" as="geometry" />
        </mxCell>
        <mxCell id="6IA_MfzywkJ-VAfN1QZK-62" value="SANATIZE EMAIL" style="rounded=1;whiteSpace=wrap;html=1;" vertex="1" parent="6IA_MfzywkJ-VAfN1QZK-25">
          <mxGeometry x="60" y="52" width="110" height="42" as="geometry" />
        </mxCell>
        <mxCell id="6IA_MfzywkJ-VAfN1QZK-67" style="edgeStyle=orthogonalEdgeStyle;rounded=0;orthogonalLoop=1;jettySize=auto;html=1;entryX=1;entryY=0.5;entryDx=0;entryDy=0;" edge="1" parent="6IA_MfzywkJ-VAfN1QZK-25" source="6IA_MfzywkJ-VAfN1QZK-65" target="6IA_MfzywkJ-VAfN1QZK-36">
          <mxGeometry relative="1" as="geometry" />
        </mxCell>
        <mxCell id="6IA_MfzywkJ-VAfN1QZK-68" style="edgeStyle=orthogonalEdgeStyle;rounded=0;orthogonalLoop=1;jettySize=auto;html=1;entryX=1;entryY=0.5;entryDx=0;entryDy=0;" edge="1" parent="6IA_MfzywkJ-VAfN1QZK-25" source="6IA_MfzywkJ-VAfN1QZK-65" target="6IA_MfzywkJ-VAfN1QZK-38">
          <mxGeometry relative="1" as="geometry">
            <Array as="points">
              <mxPoint x="530" y="247" />
            </Array>
          </mxGeometry>
        </mxCell>
        <mxCell id="6IA_MfzywkJ-VAfN1QZK-65" value="" style="rhombus;whiteSpace=wrap;html=1;" vertex="1" parent="6IA_MfzywkJ-VAfN1QZK-25">
          <mxGeometry x="500" y="112" width="60" height="60" as="geometry" />
        </mxCell>
        <mxCell id="6IA_MfzywkJ-VAfN1QZK-71" value="CONCATENES THE PASSWORD WITH THE USER SALT" style="rounded=1;whiteSpace=wrap;html=1;" vertex="1" parent="6IA_MfzywkJ-VAfN1QZK-25">
          <mxGeometry x="135" y="322" width="200" height="70" as="geometry" />
        </mxCell>
        <mxCell id="6IA_MfzywkJ-VAfN1QZK-79" style="edgeStyle=orthogonalEdgeStyle;rounded=0;orthogonalLoop=1;jettySize=auto;html=1;entryX=1;entryY=0.5;entryDx=0;entryDy=0;" edge="1" parent="6IA_MfzywkJ-VAfN1QZK-25" source="6IA_MfzywkJ-VAfN1QZK-75" target="6IA_MfzywkJ-VAfN1QZK-53">
          <mxGeometry relative="1" as="geometry">
            <Array as="points">
              <mxPoint x="525" y="612" />
            </Array>
          </mxGeometry>
        </mxCell>
        <mxCell id="6IA_MfzywkJ-VAfN1QZK-75" value="" style="rhombus;whiteSpace=wrap;html=1;" vertex="1" parent="6IA_MfzywkJ-VAfN1QZK-25">
          <mxGeometry x="495" y="482" width="60" height="60" as="geometry" />
        </mxCell>
        <mxCell id="6IA_MfzywkJ-VAfN1QZK-78" value="INVALID PASSWORD" style="text;html=1;align=center;verticalAlign=middle;resizable=0;points=[];autosize=1;strokeColor=none;fillColor=none;" vertex="1" parent="6IA_MfzywkJ-VAfN1QZK-25">
          <mxGeometry x="165" y="482" width="140" height="30" as="geometry" />
        </mxCell>
        <mxCell id="6IA_MfzywkJ-VAfN1QZK-80" value="VALID PASSWORD" style="text;html=1;align=center;verticalAlign=middle;resizable=0;points=[];autosize=1;strokeColor=none;fillColor=none;" vertex="1" parent="6IA_MfzywkJ-VAfN1QZK-25">
          <mxGeometry x="365" y="582" width="130" height="30" as="geometry" />
        </mxCell>
        <mxCell id="6IA_MfzywkJ-VAfN1QZK-61" value="&lt;font data-sider-select-id=&quot;27d13580-9784-4d7a-993a-409961da1fbb&quot; style=&quot;font-size: 36px;&quot;&gt;&lt;u data-sider-select-id=&quot;a1bdf576-4f4a-4557-ab19-ac11043a1eee&quot;&gt;&lt;i data-sider-select-id=&quot;b73e61d5-be33-417d-b80b-88c1ea88e59d&quot;&gt;&lt;b data-sider-select-id=&quot;95d108f3-91fc-4d9d-972b-4e39a701d905&quot;&gt;LOGIN PAGE&lt;/b&gt;&lt;/i&gt;&lt;/u&gt;&lt;/font&gt;" style="text;html=1;align=center;verticalAlign=middle;resizable=0;points=[];autosize=1;strokeColor=none;fillColor=none;" vertex="1" parent="1">
          <mxGeometry x="170" y="68" width="250" height="60" as="geometry" />
        </mxCell>
        <mxCell id="6IA_MfzywkJ-VAfN1QZK-64" style="edgeStyle=orthogonalEdgeStyle;rounded=0;orthogonalLoop=1;jettySize=auto;html=1;" edge="1" parent="1" source="6IA_MfzywkJ-VAfN1QZK-62" target="6IA_MfzywkJ-VAfN1QZK-6">
          <mxGeometry relative="1" as="geometry" />
        </mxCell>
        <mxCell id="6IA_MfzywkJ-VAfN1QZK-70" style="edgeStyle=orthogonalEdgeStyle;rounded=0;orthogonalLoop=1;jettySize=auto;html=1;entryX=1;entryY=0.5;entryDx=0;entryDy=0;" edge="1" parent="1" source="6IA_MfzywkJ-VAfN1QZK-6" target="6IA_MfzywkJ-VAfN1QZK-65">
          <mxGeometry relative="1" as="geometry">
            <Array as="points">
              <mxPoint x="1460" y="201" />
              <mxPoint x="1460" y="380" />
              <mxPoint x="1128" y="380" />
              <mxPoint x="1128" y="270" />
            </Array>
          </mxGeometry>
        </mxCell>
        <mxCell id="6IA_MfzywkJ-VAfN1QZK-77" style="edgeStyle=orthogonalEdgeStyle;rounded=0;orthogonalLoop=1;jettySize=auto;html=1;entryX=0;entryY=0.5;entryDx=0;entryDy=0;" edge="1" parent="1" source="6IA_MfzywkJ-VAfN1QZK-75" target="6IA_MfzywkJ-VAfN1QZK-21">
          <mxGeometry relative="1" as="geometry">
            <Array as="points">
              <mxPoint x="200" y="640" />
              <mxPoint x="200" y="269" />
            </Array>
          </mxGeometry>
        </mxCell>
        <mxCell id="6IA_MfzywkJ-VAfN1QZK-74" style="edgeStyle=orthogonalEdgeStyle;rounded=0;orthogonalLoop=1;jettySize=auto;html=1;" edge="1" parent="1" source="6IA_MfzywkJ-VAfN1QZK-71" target="6IA_MfzywkJ-VAfN1QZK-73">
          <mxGeometry relative="1" as="geometry" />
        </mxCell>
        <mxCell id="6IA_MfzywkJ-VAfN1QZK-81" style="edgeStyle=orthogonalEdgeStyle;rounded=0;orthogonalLoop=1;jettySize=auto;html=1;entryX=1;entryY=0.5;entryDx=0;entryDy=0;" edge="1" parent="1" source="6IA_MfzywkJ-VAfN1QZK-73" target="6IA_MfzywkJ-VAfN1QZK-75">
          <mxGeometry relative="1" as="geometry">
            <Array as="points">
              <mxPoint x="1460" y="485" />
              <mxPoint x="1460" y="640" />
            </Array>
          </mxGeometry>
        </mxCell>
      </root>
    </mxGraphModel>
  </diagram>
</mxfile>
